# xmcd CD database file
#
# Track frame offsets:
#	150
#	9958
#	19173
#	31283
#	42937
#	54128
#	65888
#	79581
#	91287
#	100061
#	110010
#
# Disc length: 1654 seconds
#
# Revision: 0
# Processed by: cddbd v1.5.2PL0 Copyright (c) Steve Scherf et al.
# Submitted via: jetAudio 7
#
DISCID=7e06740b
DTITLE=Chet Atkins - Floyd Cramer and Danny Davis - Chet - Floyd and Danny
DYEAR=1900
DGENRE=Country
TTITLE0=La Chicana
TTITLE1=Java
TTITLE2=I Saw The Light
TTITLE3=Black Mountain Rag
TTITLE4=Last Date
TTITLE5=Under The Double Eagle
TTITLE6=Four In The Morning
TTITLE7=Kentucky
TTITLE8=Wabash Cannonball
TTITLE9=Main Theme From ''The Young And The Restless'' (Nadia's Theme)
TTITLE10=When You Wish Upon A Star
EXTD=
EXTT0=
EXTT1=
EXTT2=
EXTT3=
EXTT4=
EXTT5=
EXTT6=
EXTT7=
EXTT8=
EXTT9=
EXTT10=
PLAYORDER=
